<svg data-v-fde0c5aa="" xmlns="http://www.w3.org/2000/svg" viewBox="0 0 300 300" class="iconLeftSlogan"><!----><defs data-v-fde0c5aa=""><linearGradient data-v-fde0c5aa="" gradientTransform="rotate(25)" id="9b4aca0a-048d-4d60-93d1-3b741c51e23f" x1="0%" y1="0%" x2="100%" y2="0%"><stop data-v-fde0c5aa="" offset="0%" stop-color="#783192" stop-opacity="1"></stop><stop data-v-fde0c5aa="" offset="100%" stop-color="#59BCC8" stop-opacity="1"></stop></linearGradient></defs><rect data-v-fde0c5aa="" fill="url(#9b4aca0a-048d-4d60-93d1-3b741c51e23f)" x="0" y="0" width="300px" height="300px" class="logo-background-square"></rect><defs data-v-fde0c5aa=""><!----></defs><g data-v-fde0c5aa="" id="7b60c210-80c4-4a91-8295-185b280ae015" fill="#ffffff" transform="matrix(1.5388054278766699,0,0,1.5388054278766699,116.32173434849926,132.19825621651185)"><path d="M0.29 10.50L1.96 10.50L3.33 3.25C3.40 2.91 3.42 2.66 3.42 2.66L6.19 10.50L8.43 10.50L10.30 0.88L8.64 0.88L7.24 8.19C7.18 8.46 7.14 8.76 7.14 8.76L4.35 0.88L2.16 0.88ZM17.64 9.37L16.98 9.37C16.69 9.37 16.49 9.25 16.58 8.86L17.22 5.66C17.51 4.27 17.07 2.86 14.63 2.86C12.81 2.86 11.82 3.70 11.49 4.83L13.15 5.12C13.37 4.27 14.06 4.12 14.49 4.12C15.33 4.12 15.72 4.65 15.58 5.38L15.43 6.12L14.21 6.12C12.46 6.15 10.78 6.48 10.44 8.09C10.16 9.41 10.86 10.64 12.56 10.64C13.61 10.64 14.41 10.22 14.87 9.45C14.80 10.08 15.18 10.64 16.25 10.64C16.81 10.64 17.09 10.61 17.40 10.58ZM13.23 9.39C12.42 9.39 12.03 8.85 12.17 8.11C12.33 7.24 13.17 7.13 14.22 7.11L15.23 7.11L15.16 7.50C14.95 8.54 14.25 9.39 13.23 9.39ZM23.46 10.50L25.28 10.50L26.17 5.98C26.52 4.19 26.22 2.86 24.16 2.86C23.00 2.86 22.13 3.39 21.59 4.35L21.76 3.00L19.99 3.00C19.96 3.28 19.88 3.98 19.75 4.59L18.59 10.50L20.43 10.50L21.14 6.75C21.43 5.17 22.30 4.23 23.37 4.23C24.77 4.23 24.51 5.32 24.30 6.30ZM32.96 7.17C32.49 9.13 31.67 9.38 30.80 9.38C29.32 9.38 29.12 7.74 29.43 6.30C29.83 4.38 30.79 4.10 31.54 4.10C33.03 4.10 33.29 5.74 32.96 7.17ZM34.83 7.32C35.38 4.90 34.51 2.84 31.70 2.84C29.29 2.84 27.93 4.12 27.51 6.30C27.05 8.68 28.10 10.64 30.66 10.64C32.91 10.64 34.34 9.48 34.83 7.32ZM35.73 10.50L37.55 10.50L39.02 3.00L37.20 3.00ZM37.37 1.85L39.24 1.85L39.59 0.14L37.72 0.14ZM42.71 10.64C44.55 10.64 45.78 9.67 46.23 8.23L44.51 7.90C44.23 8.79 43.76 9.25 42.90 9.25C41.66 9.25 41.40 7.99 41.68 6.38C41.93 4.94 42.50 4.13 43.53 4.13C44.18 4.13 44.73 4.48 44.87 5.45L46.72 5.05C46.55 3.81 45.50 2.86 43.67 2.86C42.07 2.86 40.22 3.57 39.77 6.44C39.42 8.68 40.08 10.64 42.71 10.64ZM50.37 2.94L51.04-0.50L49.18-0.50L47.10 10.50L48.93 10.50L49.64 6.75C49.94 5.17 50.81 4.23 51.87 4.23C53.26 4.23 53.02 5.29 52.81 6.27L51.97 10.50L53.79 10.50L54.67 5.98C55.02 4.19 54.73 2.86 52.67 2.86C51.45 2.86 50.58 3.47 50.09 4.34ZM61.12 4.47L61.43 2.87C61.28 2.86 60.96 2.86 60.94 2.86C59.91 2.86 59.04 3.56 58.58 4.49C58.67 3.96 58.79 3.28 58.83 3.00L57.08 3.00C57.04 3.40 56.95 3.95 56.83 4.59L55.66 10.50L57.48 10.50L58.20 6.85C58.49 5.28 59.26 4.42 60.48 4.42C60.80 4.42 60.94 4.44 61.12 4.47ZM67.05 7.17C66.58 9.13 65.76 9.38 64.89 9.38C63.41 9.38 63.21 7.74 63.52 6.30C63.92 4.38 64.88 4.10 65.63 4.10C67.12 4.10 67.38 5.74 67.05 7.17ZM68.92 7.32C69.47 4.90 68.60 2.84 65.79 2.84C63.38 2.84 62.02 4.12 61.60 6.30C61.14 8.68 62.19 10.64 64.75 10.64C67.00 10.64 68.43 9.48 68.92 7.32ZM74.27 10.50L76.06 10.50L76.79 6.73C77.11 5.04 77.76 4.20 78.72 4.20C79.91 4.20 79.67 5.29 79.52 6.10L78.68 10.50L80.47 10.50L81.35 5.98C81.69 4.28 81.42 2.84 79.39 2.84C78.44 2.84 77.62 3.43 77.11 4.40C77.04 3.56 76.54 2.84 75.46 2.84C74.12 2.84 73.29 3.53 72.83 4.33C72.88 3.91 72.94 3.43 72.98 3.00L71.23 3.00C71.19 3.28 71.11 3.98 70.98 4.59L69.82 10.50L71.65 10.50L72.37 6.75C72.60 5.47 73.40 4.23 74.30 4.23C75.47 4.23 75.25 5.26 75.11 6.10ZM82.38 10.50L84.20 10.50L85.67 3.00L83.85 3.00ZM84.01 1.85L85.89 1.85L86.24 0.14L84.36 0.14ZM89.36 10.64C91.20 10.64 92.43 9.67 92.88 8.23L91.15 7.90C90.87 8.79 90.41 9.25 89.54 9.25C88.31 9.25 88.05 7.99 88.33 6.38C88.58 4.94 89.15 4.13 90.17 4.13C90.83 4.13 91.38 4.48 91.52 5.45L93.37 5.05C93.20 3.81 92.15 2.86 90.31 2.86C88.72 2.86 86.87 3.57 86.42 6.44C86.07 8.68 86.73 10.64 89.36 10.64Z"></path></g><defs data-v-fde0c5aa=""><!----></defs><g data-v-fde0c5aa="" id="e408e807-36f0-48f7-ac1d-82edfcfe6af7" stroke="none" fill="#ffffff" transform="matrix(0.7246532525451134,0,0,0.7246532525451134,35.65119175174023,113.76708858279403)"><path d="M47.004 23l-.999 2.019L28.997 25c-6.58-.007-12.957.99-16.946 4.97-3.99 3.979-4.038 10.956-1.998 14.94L6.06 68.762c-.998 9.948 10.99 9.944 14.98 4.97l12.951-13.91c4.987-.994 8.99-3.98 9.987-5.97 4.121-.029 7.83 0 11.952 0 .998 1.99 5 4.976 9.987 5.97L78.96 74.014c4.099 4.976 15.977 3.952 14.98-5.002l-4.088-24.1c1.994-3.979 1.992-10.961-1.998-14.94-3.99-3.98-12.829-4.934-16.946-4.97l-12.92.018L56.99 23zm-.219 6.001H56.99c.528-.007 1.013.472 1.013 1 0 .53-.485 1.008-1.013 1.001h-9.986c-.523.057-1.051-.367-1.108-.89 0-1.001.89-1.11.89-1.11zm-20.94 2.001h4.181c.523 0 1 .477 1 1v6.002a1.014 1.014 0 0 1-.313.719l-1.997 2c-.37.366-1.035.366-1.405 0l-1.997-2a1.014 1.014 0 0 1-.28-.72v-6c.091-.617.507-.755.81-1.001zm1.186 2v4.627l.998.969.999-1v-4.596zm46.937 0a2.998 2.998 0 0 1 2.996 3.001c0 1.657-1.342 3.001-2.996 3.001a2.998 2.998 0 0 1-2.996-3c0-1.658 1.341-3.002 2.996-3.002zm-57.111 7.002h6.179c.257.01.51.125.686.313l1.998 2c.365.37.365 1.037 0 1.407l-1.998 2c-.182.177-.433.28-.686.282h-5.992c-.523 0-.999-.477-.999-1v-4.002c0 .019 0-.981.812-1zm15.947 0h6.21c.523 0 .999.477.999 1v4.001c0 .524-.476 1-.999 1h-5.992a.992.992 0 0 1-.717-.28l-1.998-2.001c-.365-.37-.365-1.037 0-1.407l1.998-2c.125-.18.359-.225.5-.313zm34.173 0a2.998 2.998 0 0 1 2.996 3c0 1.658-1.341 3.002-2.996 3.002a2.998 2.998 0 0 1-2.996-3.001c0-1.657 1.341-3 2.996-3zm13.981 0a2.998 2.998 0 0 1 2.996 3c0 1.658-1.341 3.002-2.996 3.002a2.998 2.998 0 0 1-2.996-3.001c0-1.657 1.342-3 2.996-3zm-62.915 2v2.001h4.587l.968-.969-.999-1.031zm15.385 0l-1.03 1.032.999.97h4.619v-2.001zm-4.712 3.314l1.997 2c.187.178.302.43.312.688v6.002c0 .523-.476 1-.999 1h-3.994c-.523 0-.999-.477-.999-1v-6.002c.002-.254.105-.505.281-.687l1.997-2.001c.643-.444.684-.314 1.405 0zm45.252 1.688a2.998 2.998 0 0 1 2.996 3c0 1.658-1.342 3.001-2.996 3.001a2.998 2.998 0 0 1-2.996-3c0-1.658 1.341-3.001 2.996-3.001zm-45.939.406l-.998 1v4.595h1.997v-4.563z"></path></g><defs data-v-fde0c5aa=""><!----></defs><g data-v-fde0c5aa="" id="48ea998e-783c-4bca-a327-09118cfcaa5c" fill="#ffffff" transform="matrix(0.5772833593818022,0,0,0.5772833593818022,117.3314450455605,158.18084661987916)"><path d="M4.55 2.35L4.55 2.35Q3.60 2.17 2.59 2.15L2.59 2.15L2.59 2.15Q2.50 2.03 2.02 2.11L2.02 2.11L2.02 2.11Q1.92 2.13 1.80 2.16L1.80 2.16L1.80 2.16Q0.74 2.22-0.30 2.46L-0.30 2.46L-0.30 2.46Q-1.04 2.63-0.97 2.88L-0.97 2.88L-0.97 2.88Q-0.92 3.08-0.20 2.91L-0.20 2.91L-0.20 2.91Q-0.19 2.91-0.18 2.90L-0.18 2.90L-0.18 2.90Q-0.16 2.90-0.15 2.89L-0.15 2.89L-0.15 2.89Q-0.08 2.88 0.08 2.85L0.08 2.85L0.08 2.85Q0.25 2.82 0.47 2.80L0.47 2.80L0.47 2.80Q0.76 2.76 1.09 2.75L1.09 2.75L1.09 2.75Q-0.33 7.40-0.72 10.96L-0.72 10.96L-0.72 10.96Q-0.73 11.02-0.51 11.03L-0.51 11.03L-0.51 11.03Q-0.29 11.04-0.01 10.99L-0.01 10.99L-0.01 10.99Q0.71 10.86 0.74 10.56L0.74 10.56L0.74 10.56Q1.11 7.19 2.43 2.78L2.43 2.78L2.43 2.78Q2.91 2.82 3.34 2.91L3.34 2.91L3.34 2.91Q3.78 2.99 4.37 2.72L4.37 2.72L4.37 2.72Q4.53 2.65 4.62 2.54L4.62 2.54L4.62 2.54Q4.76 2.39 4.55 2.35L4.55 2.35ZM15.50 1.31L15.50 1.31Q15.19 1.36 14.94 1.48L14.94 1.48L14.94 1.48Q14.66 1.61 14.64 1.70L14.64 1.70L14.64 1.70Q14.44 2.55 13.99 4.25L13.99 4.25L13.99 4.25Q13.54 5.94 13.34 6.80L13.34 6.80L13.34 6.80Q12.69 6.88 12.01 7.03L12.01 7.03L12.01 7.03Q12.22 6.04 12.63 4.31L12.63 4.31L12.63 4.31Q13.09 2.37 13.25 1.59L13.25 1.59L13.25 1.59Q13.31 1.34 12.67 1.46L12.67 1.46L12.67 1.46Q12.37 1.51 12.12 1.63L12.12 1.63L12.12 1.63Q11.84 1.76 11.82 1.85L11.82 1.85L11.82 1.85Q11.65 2.61 11.17 4.64L11.17 4.64L11.17 4.64Q10.75 6.41 10.54 7.44L10.54 7.44L10.54 7.44Q10.40 7.49 10.37 7.50L10.37 7.50L10.37 7.50Q10.21 7.55 10.05 7.66L10.05 7.66L10.05 7.66Q9.80 7.82 9.93 7.91L9.93 7.91L9.93 7.91Q10.10 8.01 10.44 7.94L10.44 7.94L10.44 7.94Q10.12 9.65 9.99 11.08L9.99 11.08L9.99 11.08Q9.99 11.15 10.21 11.16L10.21 11.16L10.21 11.16Q10.42 11.17 10.71 11.12L10.71 11.12L10.71 11.12Q11.43 10.98 11.45 10.69L11.45 10.69L11.45 10.69Q11.57 9.26 11.91 7.53L11.91 7.53L11.91 7.53Q12.11 7.49 12.46 7.42L12.46 7.42L12.46 7.42Q12.84 7.36 13.21 7.33L13.21 7.33L13.21 7.33Q12.75 9.44 12.66 11.13L12.66 11.13L12.66 11.13Q12.66 11.20 12.89 11.21L12.89 11.21L12.89 11.21Q13.10 11.22 13.38 11.17L13.38 11.17L13.38 11.17Q14.11 11.03 14.12 10.74L14.12 10.74L14.12 10.74Q14.21 9.17 14.62 7.25L14.62 7.25L14.62 7.25Q14.95 7.18 15.21 7.02L15.21 7.02L15.21 7.02Q15.39 6.91 15.36 6.82L15.36 6.82L15.36 6.82Q15.33 6.72 15.13 6.71L15.13 6.71L15.13 6.71Q14.96 6.71 14.73 6.71L14.73 6.71L14.73 6.71Q14.94 5.79 15.40 4.07L15.40 4.07L15.40 4.07Q15.88 2.28 16.08 1.44L16.08 1.44L16.08 1.44Q16.13 1.19 15.50 1.31L15.50 1.31ZM27.30 1.42L27.30 1.42Q26.59 1.19 25.41 1.57L25.41 1.57L25.41 1.57Q23.90 2.06 23.34 3.77L23.34 3.77L23.34 3.77Q22.99 4.83 23.17 6.11L23.17 6.11L23.17 6.11Q23.26 6.76 23.52 7.16L23.52 7.16L23.52 7.16Q23.11 7.38 22.81 7.70L22.81 7.70L22.81 7.70Q21.81 8.80 21.92 10.01L21.92 10.01L21.92 10.01Q21.99 10.70 22.47 11.11L22.47 11.11L22.47 11.11Q22.87 11.44 23.69 11.42L23.69 11.42L23.69 11.42Q24.53 11.39 25.23 10.95L25.23 10.95L25.23 10.95Q25.98 10.49 26.28 9.76L26.28 9.76L26.28 9.76Q26.35 9.61 26.07 9.60L26.07 9.60L26.07 9.60Q25.89 9.59 25.70 9.63L25.70 9.63L25.70 9.63Q24.95 9.76 24.85 10.02L24.85 10.02L24.85 10.02Q24.65 10.51 24.30 10.80L24.30 10.80L24.30 10.80Q24.29 10.81 24.27 10.82L24.27 10.82L24.27 10.82Q24.23 10.81 24.22 10.81L24.22 10.81L24.22 10.81Q24.15 10.79 24.07 10.75L24.07 10.75L24.07 10.75Q23.91 10.68 23.75 10.52L23.75 10.52L23.75 10.52Q23.46 10.23 23.39 9.63L23.39 9.63L23.39 9.63Q23.29 8.83 23.92 7.86L23.92 7.86L23.92 7.86Q24.00 7.74 24.10 7.62L24.10 7.62L24.10 7.62Q24.32 7.70 24.59 7.72L24.59 7.72L24.59 7.72Q24.99 7.74 25.48 7.51L25.48 7.51L25.48 7.51Q25.90 7.32 25.75 7.18L25.75 7.18L25.75 7.18Q25.46 6.90 25.04 6.84L25.04 6.84L25.04 6.84Q25.00 6.79 24.96 6.75L24.96 6.75L24.96 6.75Q24.76 6.45 24.65 5.89L24.65 5.89L24.65 5.89Q24.46 4.89 24.64 4.00L24.64 4.00L24.64 4.00Q24.91 2.70 25.68 2.04L25.68 2.04L25.68 2.04Q25.73 2.00 25.83 1.93L25.83 1.93L25.83 1.93Q25.83 1.93 25.83 1.93L25.83 1.93L25.83 1.93Q25.96 1.94 25.94 1.93L25.94 1.93L25.94 1.93Q26.52 2.02 26.41 2.62L26.41 2.62L26.41 2.62Q26.36 2.86 26.99 2.75L26.99 2.75L26.99 2.75Q27.30 2.69 27.55 2.58L27.55 2.58L27.55 2.58Q27.83 2.45 27.85 2.36L27.85 2.36L27.85 2.36Q27.99 1.63 27.30 1.42L27.30 1.42ZM49.59 2.63L49.59 2.63Q49.30 1.84 48.59 1.42L48.59 1.42L48.59 1.42Q47.93 1.03 47.04 1.02L47.04 1.02L47.04 1.02Q46.03 1.00 44.78 1.39L44.78 1.39L44.78 1.39Q44.05 1.61 44.10 1.80L44.10 1.80L44.10 1.80Q44.17 2.04 44.89 1.83L44.89 1.83L44.89 1.83Q45.08 1.76 45.27 1.72L45.27 1.72L45.27 1.72Q45.28 1.72 45.33 1.70L45.33 1.70L45.33 1.70Q45.38 1.69 45.40 1.69L45.40 1.69L45.40 1.69Q45.46 1.67 45.53 1.66L45.53 1.66L45.53 1.66Q45.59 1.65 45.70 1.63L45.70 1.63L45.70 1.63Q45.71 1.63 45.80 1.62L45.80 1.62L45.80 1.62Q45.87 1.61 46.00 1.61L46.00 1.61L46.00 1.61Q46.01 1.61 46.09 1.61L46.09 1.61L46.09 1.61Q46.82 1.61 47.38 2.00L47.38 2.00L47.38 2.00Q47.99 2.43 48.21 3.27L48.21 3.27L48.21 3.27Q48.41 3.98 48.29 4.81L48.29 4.81L48.29 4.81Q48.04 6.56 46.85 7.40L46.85 7.40L46.85 7.40Q46.81 7.42 46.75 7.46L46.75 7.46L46.75 7.46Q46.76 7.46 46.74 7.46L46.74 7.46L46.74 7.46Q46.73 7.47 46.71 7.48L46.71 7.48L46.71 7.48Q46.66 7.48 46.66 7.49L46.66 7.49L46.66 7.49Q46.55 7.49 46.47 7.47L46.47 7.47L46.47 7.47Q45.79 7.36 45.72 6.66L45.72 6.66L45.72 6.66Q45.71 6.60 45.62 6.58L45.62 6.58L45.62 6.58Q45.62 6.55 45.64 6.49L45.64 6.49L45.64 6.49Q45.64 6.44 45.65 6.42L45.65 6.42L45.65 6.42Q46.19 3.25 46.51 2.24L46.51 2.24L46.51 2.24Q46.59 1.98 45.93 2.10L45.93 2.10L45.93 2.10Q45.62 2.15 45.37 2.27L45.37 2.27L45.37 2.27Q45.10 2.40 45.07 2.50L45.07 2.50L45.07 2.50Q44.75 3.51 44.19 6.77L44.19 6.77L44.19 6.77Q43.96 8.13 43.73 8.89L43.73 8.89L43.73 8.89Q43.29 10.44 43.24 10.94L43.24 10.94L43.24 10.94Q43.24 11.01 43.46 11.02L43.46 11.02L43.46 11.02Q43.67 11.03 43.96 10.98L43.96 10.98L43.96 10.98Q44.68 10.84 44.71 10.55L44.71 10.55L44.71 10.55Q44.74 10.13 45.20 8.54L45.20 8.54L45.20 8.54Q45.27 8.31 45.34 8.03L45.34 8.03L45.34 8.03Q45.97 8.13 46.82 7.92L46.82 7.92L46.82 7.92Q48.53 7.52 49.36 5.75L49.36 5.75L49.36 5.75Q50.14 4.09 49.59 2.63L49.59 2.63ZM58.94 7.89L58.94 7.89Q58.84 7.90 57.93 7.84L57.93 7.84L57.93 7.84Q58.34 6.63 58.80 5.57L58.80 5.57L58.80 5.57Q58.97 5.18 59.51 3.95L59.51 3.95L59.51 3.95Q59.49 4.61 59.31 7.85L59.31 7.85L59.31 7.85Q59.14 7.87 58.94 7.89L58.94 7.89ZM60.75 1.18L60.75 1.18Q60.57 1.09 60.18 1.16L60.18 1.16L60.18 1.16Q59.54 1.27 59.33 1.55L59.33 1.55L59.33 1.55Q59.13 1.80 58.35 3.58L58.35 3.58L58.35 3.58Q58.21 3.90 57.85 4.70L57.85 4.70L57.85 4.70Q57.54 5.42 57.36 5.83L57.36 5.83L57.36 5.83Q56.94 6.79 56.57 7.86L56.57 7.86L56.57 7.86Q55.64 7.97 55.00 8.37L55.00 8.37L55.00 8.37Q54.82 8.48 54.84 8.58L54.84 8.58L54.84 8.58Q54.87 8.67 55.08 8.68L55.08 8.68L55.08 8.68Q55.60 8.70 56.07 8.43L56.07 8.43L56.07 8.43Q56.21 8.41 56.26 8.41L56.26 8.41L56.26 8.41Q56.32 8.41 56.38 8.41L56.38 8.41L56.38 8.41Q56.06 9.39 55.74 10.53L55.74 10.53L55.74 10.53Q55.67 10.79 56.33 10.67L56.33 10.67L56.33 10.67Q56.63 10.62 56.88 10.49L56.88 10.49L56.88 10.49Q57.16 10.37 57.18 10.27L57.18 10.27L57.18 10.27Q57.45 9.32 57.72 8.48L57.72 8.48L57.72 8.48Q58.02 8.50 58.21 8.47L58.21 8.47L58.21 8.47Q58.92 8.39 59.27 8.46L59.27 8.46L59.27 8.46Q59.17 10.55 59.17 12.02L59.17 12.02L59.17 12.02Q59.17 12.10 59.39 12.11L59.39 12.11L59.39 12.11Q59.61 12.12 59.90 12.06L59.90 12.06L59.90 12.06Q60.63 11.91 60.63 11.62L60.63 11.62L60.63 11.62Q60.63 9.90 60.83 6.45L60.83 6.45L60.83 6.45Q61.03 3.00 61.03 1.27L61.03 1.27L61.03 1.27Q61.03 1.18 60.75 1.18L60.75 1.18ZM72.38 5.31L72.38 5.31Q72.23 6.24 71.33 7.18L71.33 7.18L71.33 7.18Q71.14 7.38 70.90 7.58L70.90 7.58L70.90 7.58Q70.84 7.63 70.78 7.68L70.78 7.68L70.78 7.68Q70.56 7.59 70.31 7.58L70.31 7.58L70.31 7.58Q70.87 4.74 71.01 2.66L71.01 2.66L71.01 2.66Q71.28 2.80 71.52 2.99L71.52 2.99L71.52 2.99Q72.03 3.39 72.26 4.03L72.26 4.03L72.26 4.03Q72.49 4.65 72.38 5.31L72.38 5.31ZM69.41 2.40L69.41 2.40Q69.41 2.40 69.42 2.39L69.42 2.39L69.42 2.39Q69.41 2.40 69.41 2.40L69.41 2.40ZM74.34 11.42L74.34 11.42Q73.61 10.88 72.08 8.99L72.08 8.99L72.08 8.99Q71.41 8.17 71.29 8.05L71.29 8.05L71.29 8.05Q71.75 7.84 72.18 7.50L72.18 7.50L72.18 7.50Q73.38 6.56 73.74 5.41L73.74 5.41L73.74 5.41Q73.99 4.60 73.78 3.84L73.78 3.84L73.78 3.84Q73.57 3.07 72.95 2.53L72.95 2.53L72.95 2.53Q71.70 1.46 69.63 1.88L69.63 1.88L69.63 1.88Q69.50 1.91 69.30 1.96L69.30 1.96L69.30 1.96Q68.56 2.14 68.63 2.37L68.63 2.37L68.63 2.37Q68.69 2.58 69.40 2.40L69.40 2.40L69.40 2.40Q69.47 2.39 69.51 2.38L69.51 2.38L69.51 2.38Q69.56 2.37 69.59 2.37L69.59 2.37L69.59 2.37Q69.47 5.11 68.24 10.79L68.24 10.79L68.24 10.79Q68.18 11.04 68.82 10.92L68.82 10.92L68.82 10.92Q69.13 10.87 69.38 10.75L69.38 10.75L69.38 10.75Q69.66 10.62 69.68 10.53L69.68 10.53L69.68 10.53Q69.97 9.17 70.07 8.72L70.07 8.72L70.07 8.72Q70.08 8.72 70.08 8.72L70.08 8.72L70.08 8.72Q70.08 8.72 70.08 8.72L70.08 8.72L70.08 8.72Q70.19 8.85 70.88 9.70L70.88 9.70L70.88 9.70Q72.19 11.34 72.96 11.92L72.96 11.92L72.96 11.92Q73.19 12.09 73.90 11.83L73.90 11.83L73.90 11.83Q74.09 11.76 74.23 11.67L74.23 11.67L74.23 11.67Q74.48 11.52 74.34 11.42L74.34 11.42ZM83.59 7.89L83.59 7.89Q83.49 7.90 82.58 7.84L82.58 7.84L82.58 7.84Q83.00 6.63 83.45 5.57L83.45 5.57L83.45 5.57Q83.62 5.18 84.16 3.95L84.16 3.95L84.16 3.95Q84.14 4.61 83.96 7.85L83.96 7.85L83.96 7.85Q83.79 7.87 83.59 7.89L83.59 7.89ZM85.40 1.18L85.40 1.18Q85.22 1.09 84.83 1.16L84.83 1.16L84.83 1.16Q84.19 1.27 83.98 1.55L83.98 1.55L83.98 1.55Q83.78 1.80 83.00 3.58L83.00 3.58L83.00 3.58Q82.87 3.90 82.50 4.70L82.50 4.70L82.50 4.70Q82.19 5.42 82.01 5.83L82.01 5.83L82.01 5.83Q81.59 6.79 81.22 7.86L81.22 7.86L81.22 7.86Q80.29 7.97 79.65 8.37L79.65 8.37L79.65 8.37Q79.47 8.48 79.50 8.58L79.50 8.58L79.50 8.58Q79.52 8.67 79.73 8.68L79.73 8.68L79.73 8.68Q80.25 8.70 80.72 8.43L80.72 8.43L80.72 8.43Q80.86 8.41 80.91 8.41L80.91 8.41L80.91 8.41Q80.97 8.41 81.03 8.41L81.03 8.41L81.03 8.41Q80.71 9.39 80.39 10.53L80.39 10.53L80.39 10.53Q80.32 10.79 80.98 10.67L80.98 10.67L80.98 10.67Q81.28 10.62 81.53 10.49L81.53 10.49L81.53 10.49Q81.81 10.37 81.83 10.27L81.83 10.27L81.83 10.27Q82.10 9.32 82.37 8.48L82.37 8.48L82.37 8.48Q82.67 8.50 82.87 8.47L82.87 8.47L82.87 8.47Q83.57 8.39 83.92 8.46L83.92 8.46L83.92 8.46Q83.82 10.55 83.82 12.02L83.82 12.02L83.82 12.02Q83.82 12.10 84.04 12.11L84.04 12.11L84.04 12.11Q84.26 12.12 84.55 12.06L84.55 12.06L84.55 12.06Q85.28 11.91 85.28 11.62L85.28 11.62L85.28 11.62Q85.28 9.90 85.48 6.45L85.48 6.45L85.48 6.45Q85.68 3.00 85.68 1.27L85.68 1.27L85.68 1.27Q85.68 1.18 85.40 1.18L85.40 1.18ZM97.94 3.48L97.94 3.48Q97.90 1.70 97.05 1.01L97.05 1.01L97.05 1.01Q96.58 0.64 95.69 0.68L95.69 0.68L95.69 0.68Q94.69 0.72 93.44 1.40L93.44 1.40L93.44 1.40Q93.26 1.50 93.29 1.60L93.29 1.60L93.29 1.60Q93.32 1.70 93.52 1.71L93.52 1.71L93.52 1.71Q94.02 1.72 94.55 1.44L94.55 1.44L94.55 1.44Q94.57 1.43 94.59 1.42L94.59 1.42L94.59 1.42Q94.63 1.39 94.71 1.35L94.71 1.35L94.71 1.35Q94.75 1.34 94.83 1.31L94.83 1.31L94.83 1.31Q94.86 1.29 94.96 1.26L94.96 1.26L94.97 1.26L94.97 1.26Q94.98 1.25 94.98 1.26L94.98 1.26L94.98 1.26Q94.99 1.25 95.01 1.25L95.01 1.25L95.01 1.25Q95.04 1.25 95.08 1.26L95.08 1.26L95.08 1.26Q95.09 1.26 95.11 1.26L95.11 1.26L95.11 1.26Q95.16 1.26 95.16 1.26L95.16 1.26L95.16 1.26Q95.24 1.28 95.34 1.31L95.34 1.31L95.34 1.31Q95.35 1.31 95.35 1.31L95.35 1.31L95.35 1.31Q95.35 1.31 95.35 1.31L95.35 1.31L95.35 1.31Q95.38 1.33 95.43 1.35L95.43 1.35L95.43 1.35Q95.48 1.37 95.57 1.43L95.57 1.43L95.57 1.43Q95.70 1.51 95.83 1.65L95.83 1.65L95.83 1.65Q96.02 1.85 96.18 2.23L96.18 2.23L96.18 2.23Q96.78 3.66 96.24 6.11L96.24 6.11L96.24 6.11Q95.89 7.70 95.18 8.97L95.18 8.97L95.18 8.97Q94.83 9.60 94.42 10.03L94.42 10.03L94.42 10.03Q94.25 10.22 94.04 10.39L94.04 10.39L94.04 10.39Q95.12 5.68 95.59 1.78L95.59 1.78L95.59 1.78Q95.59 1.71 95.38 1.70L95.38 1.70L95.38 1.70Q95.16 1.69 94.88 1.74L94.88 1.74L94.88 1.74Q94.16 1.87 94.12 2.17L94.12 2.17L94.12 2.17Q93.65 6.19 92.48 11.16L92.48 11.16L92.48 11.16Q92.42 11.42 93.06 11.30L93.06 11.30L93.06 11.30Q93.36 11.25 93.61 11.12L93.61 11.12L93.61 11.12Q93.81 11.03 93.87 10.97L93.87 10.97L93.87 10.97Q94.14 10.93 94.52 10.77L94.52 10.77L94.52 10.77Q96.09 10.12 97.07 7.78L97.07 7.78L97.07 7.78Q97.98 5.63 97.94 3.48L97.94 3.48ZM105.88 2.53L105.88 2.53Q105.63 3.62 105.01 6.79L105.01 6.79L105.01 6.79Q104.77 8.03 104.58 8.93L104.58 8.93L104.58 8.93Q104.19 10.78 104.19 10.91L104.19 10.91L104.19 10.91Q104.19 10.99 104.41 11.00L104.41 11.00L104.41 11.00Q104.63 11.01 104.91 10.96L104.91 10.96L104.91 10.96Q105.64 10.81 105.65 10.52L105.65 10.52L105.65 10.52Q105.66 10.23 105.81 9.62L105.81 9.62L105.81 9.62Q105.89 9.32 106.05 8.57L106.05 8.57L106.05 8.57Q106.22 7.77 106.48 6.44L106.48 6.44L106.48 6.44Q107.07 3.36 107.32 2.27L107.32 2.27L107.32 2.27Q107.37 2.02 106.73 2.13L106.73 2.13L106.73 2.13Q106.43 2.19 106.18 2.31L106.18 2.31L106.18 2.31Q105.90 2.44 105.88 2.53L105.88 2.53ZM119.08 5.50L119.08 5.50Q119.53 4.74 119.74 3.53L119.74 3.53L119.74 3.53Q119.98 2.15 119.48 1.57L119.48 1.57L119.48 1.57Q119.19 1.22 118.44 1.27L118.44 1.27L118.44 1.27Q117.50 1.33 116.61 1.85L116.61 1.85L116.61 1.85Q115.36 2.59 114.75 4.34L114.75 4.34L114.75 4.34Q114.13 6.10 114.75 7.18L114.75 7.18L114.75 7.18Q115.04 7.68 116.42 8.17L116.42 8.17L116.42 8.17Q116.98 8.37 117.19 8.48L117.19 8.48L117.19 8.48Q117.63 8.74 117.71 9.11L117.71 9.11L117.71 9.11Q117.81 9.50 117.47 10.17L117.47 10.17L117.47 10.17Q117.29 10.51 117.01 10.76L117.01 10.76L117.01 10.76Q116.89 10.87 116.74 10.97L116.74 10.97L116.74 10.97Q116.66 11.02 116.64 11.03L116.64 11.03L116.64 11.03Q116.58 11.07 116.52 11.09L116.52 11.09L116.52 11.09Q116.61 11.05 116.49 11.10L116.49 11.10L116.49 11.10Q116.50 11.10 116.56 11.09L116.56 11.09L116.56 11.09Q116.52 11.09 116.47 11.09L116.47 11.09L116.47 11.09Q116.46 11.10 116.37 11.09L116.37 11.09L116.37 11.09Q116.32 11.09 116.17 11.05L116.17 11.05L116.17 11.05Q115.81 10.97 115.51 10.64L115.51 10.64L115.51 10.64Q115.29 10.39 115.21 9.93L115.21 9.93L115.21 9.93Q115.10 9.44 115.33 9.28L115.33 9.28L115.33 9.28Q115.53 9.13 115.51 9.06L115.51 9.06L115.51 9.06Q115.48 8.97 115.25 8.96L115.25 8.96L115.25 8.96Q114.63 8.95 114.21 9.24L114.21 9.24L114.21 9.24Q113.83 9.53 113.75 9.86L113.75 9.86L113.75 9.86Q113.67 10.20 113.83 10.62L113.83 10.62L113.83 10.62Q114.10 11.36 114.97 11.61L114.97 11.61L114.97 11.61Q115.86 11.87 117.13 11.37L117.13 11.37L117.13 11.37Q118.14 10.96 118.71 10.24L118.71 10.24L118.71 10.24Q119.08 9.76 119.17 9.24L119.17 9.24L119.17 9.24Q119.27 8.62 118.89 8.23L118.89 8.23L118.89 8.23Q118.62 7.96 118.06 7.75L118.06 7.75L118.06 7.75Q117.91 7.70 117.60 7.59L117.60 7.59L117.60 7.59Q117.30 7.50 117.17 7.44L117.17 7.44L117.17 7.44Q116.64 7.23 116.36 6.97L116.36 6.97L116.36 6.97Q116.06 6.69 115.96 5.96L115.96 5.96L115.96 5.96Q115.76 4.53 116.71 2.97L116.71 2.97L116.71 2.97Q117.13 2.29 117.63 1.95L117.63 1.95L117.63 1.95Q117.68 1.91 117.78 1.86L117.78 1.86L117.78 1.86Q117.77 1.86 117.82 1.84L117.82 1.84L117.82 1.84Q117.81 1.84 117.85 1.83L117.85 1.83L117.85 1.83Q117.82 1.84 117.87 1.83L117.87 1.83L117.87 1.83Q117.79 1.85 117.71 1.85L117.71 1.85L117.71 1.85Q117.74 1.85 117.72 1.85L117.72 1.85L117.74 1.85L117.74 1.85Q117.80 1.86 117.88 1.89L117.88 1.89L117.88 1.89Q117.89 1.89 117.99 1.96L117.99 1.96L117.99 1.96Q118.06 2.01 118.10 2.06L118.10 2.06L118.10 2.06Q118.21 2.20 118.28 2.45L118.28 2.45L118.28 2.45Q118.40 2.84 118.34 3.49L118.34 3.49L118.34 3.49Q118.21 4.81 117.64 5.76L117.64 5.76L117.64 5.76Q117.55 5.90 117.86 5.91L117.86 5.91L117.86 5.91Q118.06 5.92 118.22 5.89L118.22 5.89L118.22 5.89Q118.92 5.76 119.08 5.50L119.08 5.50ZM131.02 1.42L131.02 1.42Q130.31 1.19 129.13 1.57L129.13 1.57L129.13 1.57Q127.62 2.06 127.06 3.77L127.06 3.77L127.06 3.77Q126.71 4.83 126.89 6.11L126.89 6.11L126.89 6.11Q126.98 6.76 127.24 7.16L127.24 7.16L127.24 7.16Q126.83 7.38 126.53 7.70L126.53 7.70L126.53 7.70Q125.54 8.80 125.64 10.01L125.64 10.01L125.64 10.01Q125.71 10.70 126.19 11.11L126.19 11.11L126.19 11.11Q126.59 11.44 127.42 11.42L127.42 11.42L127.42 11.42Q128.25 11.39 128.95 10.95L128.95 10.95L128.95 10.95Q129.71 10.49 130.01 9.76L130.01 9.76L130.01 9.76Q130.07 9.61 129.79 9.60L129.79 9.60L129.79 9.60Q129.62 9.59 129.42 9.63L129.42 9.63L129.42 9.63Q128.67 9.76 128.57 10.02L128.57 10.02L128.57 10.02Q128.37 10.51 128.02 10.80L128.02 10.80L128.02 10.80Q128.01 10.81 128.00 10.82L128.00 10.82L128.00 10.82Q127.95 10.81 127.94 10.81L127.94 10.81L127.94 10.81Q127.87 10.79 127.79 10.75L127.79 10.75L127.79 10.75Q127.63 10.68 127.47 10.52L127.47 10.52L127.47 10.52Q127.18 10.23 127.11 9.63L127.11 9.63L127.11 9.63Q127.01 8.83 127.64 7.86L127.64 7.86L127.64 7.86Q127.72 7.74 127.83 7.62L127.83 7.62L127.83 7.62Q128.04 7.70 128.31 7.72L128.31 7.72L128.31 7.72Q128.71 7.74 129.21 7.51L129.21 7.51L129.21 7.51Q129.62 7.32 129.47 7.18L129.47 7.18L129.47 7.18Q129.19 6.90 128.76 6.84L128.76 6.84L128.76 6.84Q128.72 6.79 128.69 6.75L128.69 6.75L128.69 6.75Q128.48 6.45 128.37 5.89L128.37 5.89L128.37 5.89Q128.18 4.89 128.37 4.00L128.37 4.00L128.37 4.00Q128.63 2.70 129.40 2.04L129.40 2.04L129.40 2.04Q129.45 2.00 129.55 1.93L129.55 1.93L129.55 1.93Q129.55 1.93 129.55 1.93L129.55 1.93L129.55 1.93Q129.68 1.94 129.66 1.93L129.66 1.93L129.66 1.93Q130.25 2.02 130.13 2.62L130.13 2.62L130.13 2.62Q130.08 2.86 130.71 2.75L130.71 2.75L130.71 2.75Q131.02 2.69 131.27 2.58L131.27 2.58L131.27 2.58Q131.55 2.45 131.57 2.36L131.57 2.36L131.57 2.36Q131.71 1.63 131.02 1.42L131.02 1.42ZM150.60 5.20L150.60 5.20Q150.47 6.64 150.21 7.92L150.21 7.92L150.21 7.92Q149.80 9.88 149.02 10.64L149.02 10.64L149.02 10.64Q148.93 10.55 148.86 10.38L148.86 10.38L148.86 10.38Q148.67 9.97 148.69 9.03L148.69 9.03L148.69 9.03Q148.72 7.34 149.29 5.48L149.29 5.48L149.29 5.48Q149.79 3.85 150.49 3.01L150.49 3.01L150.49 3.01Q150.56 3.25 150.61 3.62L150.61 3.62L150.61 3.62Q150.68 4.21 150.60 5.20L150.60 5.20ZM151.53 1.96L151.53 1.96Q151.32 1.79 150.58 2.05L150.58 2.05L150.58 2.05Q150.08 2.24 150.10 2.39L150.10 2.39L150.10 2.39Q149.85 2.48 149.67 2.63L149.67 2.63L149.67 2.63Q148.69 3.40 148.03 5.22L148.03 5.22L148.03 5.22Q147.48 6.70 147.29 8.50L147.29 8.50L147.29 8.50Q147.21 9.28 147.23 9.92L147.23 9.92L147.23 9.92Q147.27 10.77 147.64 11.13L147.64 11.13L147.64 11.13Q147.82 11.31 148.25 11.33L148.25 11.33L148.25 11.33Q148.79 11.36 149.62 11.02L149.62 11.02L149.62 11.02Q150.30 10.74 150.82 9.94L150.82 9.94L150.82 9.94Q151.29 9.21 151.61 7.85L151.61 7.85L151.61 7.85Q151.82 6.94 151.94 5.84L151.94 5.84L151.94 5.84Q152.11 4.44 152.11 3.78L152.11 3.78L152.11 3.78Q152.09 2.45 151.53 1.96L151.53 1.96ZM164.59 1.59L164.59 1.59Q163.49 1.45 161.81 1.75L161.81 1.75L161.81 1.75Q161.81 1.74 161.82 1.70L161.82 1.70L161.82 1.70Q161.83 1.66 161.83 1.64L161.83 1.64L161.83 1.64Q161.90 1.39 161.25 1.50L161.25 1.50L161.25 1.50Q160.95 1.56 160.70 1.67L160.70 1.67L160.70 1.67Q160.43 1.80 160.40 1.90L160.40 1.90L160.40 1.90Q160.41 1.88 160.35 2.08L160.35 2.08L160.35 2.08Q160.16 2.18 160.10 2.30L160.10 2.30L160.10 2.30Q160.03 2.43 160.25 2.45L160.25 2.45L160.25 2.45Q158.98 7.25 158.47 10.98L158.47 10.98L158.47 10.98Q158.46 11.10 158.84 11.07L158.84 11.07L158.84 11.07Q159.09 11.05 159.26 11.00L159.26 11.00L159.26 11.00Q159.90 10.83 159.93 10.59L159.93 10.59L159.93 10.59Q160.15 8.95 160.51 7.16L160.51 7.16L160.51 7.16Q160.45 7.17 161.51 7.09L161.51 7.09L161.51 7.09Q162.15 7.05 162.48 6.75L162.48 6.75L162.48 6.75Q162.64 6.60 162.45 6.54L162.45 6.54L162.45 6.54Q162.32 6.50 162.14 6.51L162.14 6.51L162.14 6.51Q161.01 6.60 160.62 6.66L160.62 6.66L160.62 6.66Q161.03 4.65 161.68 2.24L161.68 2.24L161.68 2.24Q162.70 2.06 163.39 2.15L163.39 2.15L163.39 2.15Q163.86 2.21 164.40 1.96L164.40 1.96L164.40 1.96Q164.55 1.89 164.66 1.78L164.66 1.78L164.66 1.78Q164.81 1.62 164.59 1.59L164.59 1.59ZM183.01 7.83L183.01 7.83L183.01 7.83Q183.03 7.83 183.05 7.81L183.05 7.81L183.05 7.81Q183.03 7.83 183.01 7.83L183.01 7.83ZM184.57 1.67L184.57 1.67Q184.19 0.90 182.84 1.50L182.84 1.50L182.84 1.50Q182.27 1.75 181.71 2.55L181.71 2.55L181.71 2.55Q181.24 3.20 180.82 4.06L180.82 4.06L180.82 4.06Q179.89 5.91 179.61 8.21L179.61 8.21L179.61 8.21Q179.50 9.15 179.48 9.80L179.48 9.80L179.48 9.80Q179.46 10.74 179.89 11.05L179.89 11.05L179.89 11.05Q180.35 11.39 181.49 11.00L181.49 11.00L181.49 11.00Q182.14 10.77 182.73 10.19L182.73 10.19L182.73 10.19Q183.24 9.71 183.56 8.87L183.56 8.87L183.56 8.87Q183.70 8.48 183.76 8.11L183.76 8.11L183.76 8.11Q183.82 7.72 183.72 7.57L183.72 7.57L183.72 7.57Q183.54 7.29 182.87 7.43L182.87 7.43L182.87 7.43Q182.14 7.58 181.53 8.07L181.53 8.07L181.53 8.07Q181.35 8.21 181.56 8.27L181.56 8.27L181.56 8.27Q181.71 8.31 181.87 8.30L181.87 8.30L181.87 8.30Q182.10 8.28 182.33 8.21L182.33 8.21L182.33 8.21Q182.34 8.48 182.15 9.04L182.15 9.04L182.15 9.04Q181.96 9.59 181.70 9.99L181.70 9.99L181.70 9.99Q181.65 10.06 181.62 10.08L181.62 10.08L181.62 10.08Q181.51 10.21 181.42 10.31L181.42 10.31L181.42 10.31Q181.33 10.40 181.20 10.51L181.20 10.51L181.20 10.51Q181.15 10.45 181.10 10.36L181.10 10.36L181.10 10.36Q180.97 10.13 180.95 9.65L180.95 9.65L180.95 9.65Q180.93 9.36 181.04 8.16L181.04 8.16L181.04 8.16Q181.23 5.98 182.18 3.95L182.18 3.95L182.18 3.95Q182.70 2.84 183.18 2.21L183.18 2.21L183.18 2.21Q183.30 2.51 183.31 2.81L183.31 2.81L183.31 2.81Q183.33 3.19 183.13 3.34L183.13 3.34L183.13 3.34Q182.96 3.47 183.17 3.53L183.17 3.53L183.17 3.53Q183.32 3.58 183.48 3.57L183.48 3.57L183.48 3.57Q184.08 3.51 184.45 3.22L184.45 3.22L184.45 3.22Q184.76 2.98 184.76 2.48L184.76 2.48L184.76 2.48Q184.76 2.06 184.57 1.67L184.57 1.67ZM194.03 7.89L194.03 7.89Q193.93 7.90 193.03 7.84L193.03 7.84L193.03 7.84Q193.44 6.63 193.89 5.57L193.89 5.57L193.89 5.57Q194.06 5.18 194.61 3.95L194.61 3.95L194.61 3.95Q194.58 4.61 194.40 7.85L194.40 7.85L194.40 7.85Q194.23 7.87 194.03 7.89L194.03 7.89ZM195.84 1.18L195.84 1.18Q195.66 1.09 195.28 1.16L195.28 1.16L195.28 1.16Q194.63 1.27 194.42 1.55L194.42 1.55L194.42 1.55Q194.22 1.80 193.44 3.58L193.44 3.58L193.44 3.58Q193.31 3.90 192.94 4.70L192.94 4.70L192.94 4.70Q192.63 5.42 192.45 5.83L192.45 5.83L192.45 5.83Q192.04 6.79 191.66 7.86L191.66 7.86L191.66 7.86Q190.74 7.97 190.09 8.37L190.09 8.37L190.09 8.37Q189.91 8.48 189.94 8.58L189.94 8.58L189.94 8.58Q189.96 8.67 190.17 8.68L190.17 8.68L190.17 8.68Q190.69 8.70 191.16 8.43L191.16 8.43L191.16 8.43Q191.30 8.41 191.35 8.41L191.35 8.41L191.35 8.41Q191.41 8.41 191.47 8.41L191.47 8.41L191.47 8.41Q191.15 9.39 190.83 10.53L190.83 10.53L190.83 10.53Q190.76 10.79 191.42 10.67L191.42 10.67L191.42 10.67Q191.72 10.62 191.97 10.49L191.97 10.49L191.97 10.49Q192.25 10.37 192.27 10.27L192.27 10.27L192.27 10.27Q192.54 9.32 192.81 8.48L192.81 8.48L192.81 8.48Q193.11 8.50 193.31 8.47L193.31 8.47L193.31 8.47Q194.01 8.39 194.37 8.46L194.37 8.46L194.37 8.46Q194.26 10.55 194.26 12.02L194.26 12.02L194.26 12.02Q194.26 12.10 194.48 12.11L194.48 12.11L194.48 12.11Q194.70 12.12 194.99 12.06L194.99 12.06L194.99 12.06Q195.72 11.91 195.72 11.62L195.72 11.62L195.72 11.62Q195.72 9.90 195.92 6.45L195.92 6.45L195.92 6.45Q196.12 3.00 196.12 1.27L196.12 1.27L196.12 1.27Q196.12 1.18 195.84 1.18L195.84 1.18ZM210.62 2.21L210.62 2.21Q210.58 2.05 210.03 2.15L210.03 2.15L210.03 2.15Q209.33 2.28 209.17 2.54L209.17 2.54L209.17 2.54Q208.29 4.03 207.35 6.51L207.35 6.51L207.35 6.41L207.35 6.41Q207.35 5.55 207.19 2.12L207.19 2.12L207.19 2.12Q207.18 2.03 206.95 2.02L206.95 2.02L206.95 2.02Q206.81 1.92 206.39 2.00L206.39 2.00L206.39 2.00Q205.68 2.13 205.54 2.39L205.54 2.39L205.54 2.39Q203.40 6.30 202.79 11.14L202.79 11.14L202.79 11.14Q202.78 11.27 203.16 11.23L203.16 11.23L203.16 11.23Q203.41 11.21 203.59 11.16L203.59 11.16L203.59 11.16Q204.23 10.99 204.26 10.75L204.26 10.75L204.26 10.75Q204.66 7.51 205.83 4.58L205.83 4.58L205.83 4.58Q205.88 5.81 205.89 6.71L205.89 6.71L205.89 6.71Q205.90 8.26 205.82 8.86L205.82 8.86L205.82 8.86Q205.63 10.15 205.63 10.99L205.63 10.99L205.63 10.99Q205.63 11.20 206.31 11.03L206.31 11.03L206.31 11.03Q206.99 10.86 207.07 10.66L207.07 10.66L207.07 10.66Q207.55 9.61 208.27 7.67L208.27 7.67L208.27 7.67Q209.06 5.54 209.43 4.66L209.43 4.66L209.43 4.66Q209.47 5.91 209.23 7.85L209.23 7.85L209.23 7.85Q208.89 10.57 208.86 11.04L208.86 11.04L208.86 11.04Q208.85 11.12 209.07 11.12L209.07 11.12L209.07 11.12Q209.29 11.13 209.57 11.08L209.57 11.08L209.57 11.08Q210.29 10.94 210.32 10.65L210.32 10.65L210.32 10.65Q210.38 9.88 210.55 8.54L210.55 8.54L210.55 8.54Q210.75 7.03 210.81 6.43L210.81 6.43L210.81 6.43Q211.05 3.95 210.62 2.21L210.62 2.21ZM222.67 1.42L222.67 1.42Q221.96 1.19 220.78 1.57L220.78 1.57L220.78 1.57Q219.27 2.06 218.71 3.77L218.71 3.77L218.71 3.77Q218.36 4.83 218.54 6.11L218.54 6.11L218.54 6.11Q218.63 6.76 218.89 7.16L218.89 7.16L218.89 7.16Q218.48 7.38 218.18 7.70L218.18 7.70L218.18 7.70Q217.18 8.80 217.29 10.01L217.29 10.01L217.29 10.01Q217.36 10.70 217.84 11.11L217.84 11.11L217.84 11.11Q218.24 11.44 219.06 11.42L219.06 11.42L219.06 11.42Q219.90 11.39 220.60 10.95L220.60 10.95L220.60 10.95Q221.35 10.49 221.66 9.76L221.66 9.76L221.66 9.76Q221.72 9.61 221.44 9.60L221.44 9.60L221.44 9.60Q221.27 9.59 221.07 9.63L221.07 9.63L221.07 9.63Q220.32 9.76 220.22 10.02L220.22 10.02L220.22 10.02Q220.02 10.51 219.67 10.80L219.67 10.80L219.67 10.80Q219.66 10.81 219.65 10.82L219.65 10.82L219.65 10.82Q219.60 10.81 219.59 10.81L219.59 10.81L219.59 10.81Q219.52 10.79 219.44 10.75L219.44 10.75L219.44 10.75Q219.28 10.68 219.12 10.52L219.12 10.52L219.12 10.52Q218.83 10.23 218.76 9.63L218.76 9.63L218.76 9.63Q218.66 8.83 219.29 7.86L219.29 7.86L219.29 7.86Q219.37 7.74 219.47 7.62L219.47 7.62L219.47 7.62Q219.69 7.70 219.96 7.72L219.96 7.72L219.96 7.72Q220.36 7.74 220.86 7.51L220.86 7.51L220.86 7.51Q221.27 7.32 221.12 7.18L221.12 7.18L221.12 7.18Q220.83 6.90 220.41 6.84L220.41 6.84L220.41 6.84Q220.37 6.79 220.34 6.75L220.34 6.75L220.34 6.75Q220.13 6.45 220.02 5.89L220.02 5.89L220.02 5.89Q219.83 4.89 220.01 4.00L220.01 4.00L220.01 4.00Q220.28 2.70 221.05 2.04L221.05 2.04L221.05 2.04Q221.10 2.00 221.20 1.93L221.20 1.93L221.20 1.93Q221.20 1.93 221.20 1.93L221.20 1.93L221.20 1.93Q221.33 1.94 221.31 1.93L221.31 1.93L221.31 1.93Q221.89 2.02 221.78 2.62L221.78 2.62L221.78 2.62Q221.73 2.86 222.36 2.75L222.36 2.75L222.36 2.75Q222.67 2.69 222.92 2.58L222.92 2.58L222.92 2.58Q223.20 2.45 223.22 2.36L223.22 2.36L223.22 2.36Q223.36 1.63 222.67 1.42L222.67 1.42ZM232.93 5.31L232.93 5.31Q232.78 6.24 231.88 7.18L231.88 7.18L231.88 7.18Q231.69 7.38 231.45 7.58L231.45 7.58L231.45 7.58Q231.39 7.63 231.33 7.68L231.33 7.68L231.33 7.68Q231.11 7.59 230.86 7.58L230.86 7.58L230.86 7.58Q231.42 4.74 231.56 2.66L231.56 2.66L231.56 2.66Q231.83 2.80 232.07 2.99L232.07 2.99L232.07 2.99Q232.58 3.39 232.81 4.03L232.81 4.03L232.81 4.03Q233.04 4.65 232.93 5.31L232.93 5.31ZM229.95 2.40L229.95 2.40Q229.95 2.40 229.97 2.39L229.97 2.39L229.97 2.39Q229.96 2.40 229.95 2.40L229.95 2.40ZM234.89 11.42L234.89 11.42Q234.16 10.88 232.63 8.99L232.63 8.99L232.63 8.99Q231.96 8.17 231.84 8.05L231.84 8.05L231.84 8.05Q232.30 7.84 232.73 7.50L232.73 7.50L232.73 7.50Q233.93 6.56 234.29 5.41L234.29 5.41L234.29 5.41Q234.53 4.60 234.33 3.84L234.33 3.84L234.33 3.84Q234.12 3.07 233.50 2.53L233.50 2.53L233.50 2.53Q232.25 1.46 230.18 1.88L230.18 1.88L230.18 1.88Q230.05 1.91 229.85 1.96L229.85 1.96L229.85 1.96Q229.11 2.14 229.17 2.37L229.17 2.37L229.17 2.37Q229.24 2.58 229.95 2.40L229.95 2.40L229.95 2.40Q230.02 2.39 230.06 2.38L230.06 2.38L230.06 2.38Q230.10 2.37 230.14 2.37L230.14 2.37L230.14 2.37Q230.02 5.11 228.79 10.79L228.79 10.79L228.79 10.79Q228.73 11.04 229.37 10.92L229.37 10.92L229.37 10.92Q229.67 10.87 229.93 10.75L229.93 10.75L229.93 10.75Q230.21 10.62 230.23 10.53L230.23 10.53L230.23 10.53Q230.52 9.17 230.62 8.72L230.62 8.72L230.62 8.72Q230.62 8.72 230.62 8.72L230.62 8.72L230.62 8.72Q230.63 8.72 230.63 8.72L230.63 8.72L230.63 8.72Q230.74 8.85 231.42 9.70L231.42 9.70L231.42 9.70Q232.74 11.34 233.51 11.92L233.51 11.92L233.51 11.92Q233.73 12.09 234.45 11.83L234.45 11.83L234.45 11.83Q234.64 11.76 234.78 11.67L234.78 11.67L234.78 11.67Q235.03 11.52 234.89 11.42L234.89 11.42ZM246.40 5.50L246.40 5.50Q246.85 4.74 247.06 3.53L247.06 3.53L247.06 3.53Q247.30 2.15 246.80 1.57L246.80 1.57L246.80 1.57Q246.51 1.22 245.76 1.27L245.76 1.27L245.76 1.27Q244.82 1.33 243.93 1.85L243.93 1.85L243.93 1.85Q242.68 2.59 242.07 4.34L242.07 4.34L242.07 4.34Q241.45 6.10 242.07 7.18L242.07 7.18L242.07 7.18Q242.36 7.68 243.74 8.17L243.74 8.17L243.74 8.17Q244.30 8.37 244.51 8.48L244.51 8.48L244.51 8.48Q244.95 8.74 245.03 9.11L245.03 9.11L245.03 9.11Q245.13 9.50 244.79 10.17L244.79 10.17L244.79 10.17Q244.61 10.51 244.33 10.76L244.33 10.76L244.33 10.76Q244.21 10.87 244.06 10.97L244.06 10.97L244.06 10.97Q243.98 11.02 243.96 11.03L243.96 11.03L243.96 11.03Q243.90 11.07 243.84 11.09L243.84 11.09L243.84 11.09Q243.93 11.05 243.81 11.10L243.81 11.10L243.81 11.10Q243.82 11.10 243.88 11.09L243.88 11.09L243.88 11.09Q243.84 11.09 243.79 11.09L243.79 11.09L243.79 11.09Q243.78 11.10 243.69 11.09L243.69 11.09L243.69 11.09Q243.64 11.09 243.49 11.05L243.49 11.05L243.49 11.05Q243.13 10.97 242.83 10.64L242.83 10.64L242.83 10.64Q242.61 10.39 242.53 9.93L242.53 9.93L242.53 9.93Q242.42 9.44 242.65 9.28L242.65 9.28L242.65 9.28Q242.85 9.13 242.83 9.06L242.83 9.06L242.83 9.06Q242.80 8.97 242.57 8.96L242.57 8.96L242.57 8.96Q241.94 8.95 241.53 9.24L241.53 9.24L241.53 9.24Q241.14 9.53 241.07 9.86L241.07 9.86L241.07 9.86Q240.99 10.20 241.14 10.62L241.14 10.62L241.14 10.62Q241.42 11.36 242.29 11.61L242.29 11.61L242.29 11.61Q243.17 11.87 244.45 11.37L244.45 11.37L244.45 11.37Q245.46 10.96 246.03 10.24L246.03 10.24L246.03 10.24Q246.40 9.76 246.49 9.24L246.49 9.24L246.49 9.24Q246.59 8.62 246.21 8.23L246.21 8.23L246.21 8.23Q245.94 7.96 245.38 7.75L245.38 7.75L245.38 7.75Q245.23 7.70 244.92 7.59L244.92 7.59L244.92 7.59Q244.62 7.50 244.49 7.44L244.49 7.44L244.49 7.44Q243.96 7.23 243.68 6.97L243.68 6.97L243.68 6.97Q243.38 6.69 243.28 5.96L243.28 5.96L243.28 5.96Q243.08 4.53 244.03 2.97L244.03 2.97L244.03 2.97Q244.45 2.29 244.95 1.95L244.95 1.95L244.95 1.95Q245 1.91 245.10 1.86L245.10 1.86L245.10 1.86Q245.09 1.86 245.14 1.84L245.14 1.84L245.14 1.84Q245.13 1.84 245.17 1.83L245.17 1.83L245.17 1.83Q245.14 1.84 245.18 1.83L245.18 1.83L245.18 1.83Q245.11 1.85 245.03 1.85L245.03 1.85L245.03 1.85Q245.05 1.85 245.04 1.85L245.04 1.85L245.06 1.85L245.06 1.85Q245.12 1.86 245.20 1.89L245.20 1.89L245.20 1.89Q245.21 1.89 245.31 1.96L245.31 1.96L245.31 1.96Q245.38 2.01 245.42 2.06L245.42 2.06L245.42 2.06Q245.53 2.20 245.60 2.45L245.60 2.45L245.60 2.45Q245.72 2.84 245.66 3.49L245.66 3.49L245.66 3.49Q245.53 4.81 244.96 5.76L244.96 5.76L244.96 5.76Q244.87 5.90 245.18 5.91L245.18 5.91L245.18 5.91Q245.38 5.92 245.54 5.89L245.54 5.89L245.54 5.89Q246.24 5.76 246.40 5.50L246.40 5.50Z"></path></g></svg>