<svg data-v-fde0c5aa="" xmlns="http://www.w3.org/2000/svg" viewBox="0 0 300 300" class="font"><!----><defs data-v-fde0c5aa=""><linearGradient data-v-fde0c5aa="" gradientTransform="rotate(25)" id="b40264a4-05f9-41f9-bf45-1316cc58b0dd" x1="0%" y1="0%" x2="100%" y2="0%"><stop data-v-fde0c5aa="" offset="0%" stop-color="#783192" stop-opacity="1"></stop><stop data-v-fde0c5aa="" offset="100%" stop-color="#59BCC8" stop-opacity="1"></stop></linearGradient></defs><rect data-v-fde0c5aa="" fill="url(#b40264a4-05f9-41f9-bf45-1316cc58b0dd)" x="0" y="0" width="300px" height="300px" class="logo-background-square"></rect><defs data-v-fde0c5aa=""><!----></defs><g data-v-fde0c5aa="" id="7c6a58d8-8597-41af-be9f-8191d5853465" fill="#ffffff" transform="matrix(2.3635581829844834,0,0,2.3635581829844834,39.314568076218045,138.01675960653702)"><path d="M0.29 10.50L1.96 10.50L3.33 3.25C3.40 2.91 3.42 2.66 3.42 2.66L6.19 10.50L8.43 10.50L10.30 0.88L8.64 0.88L7.24 8.19C7.18 8.46 7.14 8.76 7.14 8.76L4.35 0.88L2.16 0.88ZM17.64 9.37L16.98 9.37C16.69 9.37 16.49 9.25 16.58 8.86L17.22 5.66C17.51 4.27 17.07 2.86 14.63 2.86C12.81 2.86 11.82 3.70 11.49 4.83L13.15 5.12C13.37 4.27 14.06 4.12 14.49 4.12C15.33 4.12 15.72 4.65 15.58 5.38L15.43 6.12L14.21 6.12C12.46 6.15 10.78 6.48 10.44 8.09C10.16 9.41 10.86 10.64 12.56 10.64C13.61 10.64 14.41 10.22 14.87 9.45C14.80 10.08 15.18 10.64 16.25 10.64C16.81 10.64 17.09 10.61 17.40 10.58ZM13.23 9.39C12.42 9.39 12.03 8.85 12.17 8.11C12.33 7.24 13.17 7.13 14.22 7.11L15.23 7.11L15.16 7.50C14.95 8.54 14.25 9.39 13.23 9.39ZM23.46 10.50L25.28 10.50L26.17 5.98C26.52 4.19 26.22 2.86 24.16 2.86C23.00 2.86 22.13 3.39 21.59 4.35L21.76 3.00L19.99 3.00C19.96 3.28 19.88 3.98 19.75 4.59L18.59 10.50L20.43 10.50L21.14 6.75C21.43 5.17 22.30 4.23 23.37 4.23C24.77 4.23 24.51 5.32 24.30 6.30ZM32.96 7.17C32.49 9.13 31.67 9.38 30.80 9.38C29.32 9.38 29.12 7.74 29.43 6.30C29.83 4.38 30.79 4.10 31.54 4.10C33.03 4.10 33.29 5.74 32.96 7.17ZM34.83 7.32C35.38 4.90 34.51 2.84 31.70 2.84C29.29 2.84 27.93 4.12 27.51 6.30C27.05 8.68 28.10 10.64 30.66 10.64C32.91 10.64 34.34 9.48 34.83 7.32ZM35.73 10.50L37.55 10.50L39.02 3.00L37.20 3.00ZM37.37 1.85L39.24 1.85L39.59 0.14L37.72 0.14ZM42.71 10.64C44.55 10.64 45.78 9.67 46.23 8.23L44.51 7.90C44.23 8.79 43.76 9.25 42.90 9.25C41.66 9.25 41.40 7.99 41.68 6.38C41.93 4.94 42.50 4.13 43.53 4.13C44.18 4.13 44.73 4.48 44.87 5.45L46.72 5.05C46.55 3.81 45.50 2.86 43.67 2.86C42.07 2.86 40.22 3.57 39.77 6.44C39.42 8.68 40.08 10.64 42.71 10.64ZM50.37 2.94L51.04-0.50L49.18-0.50L47.10 10.50L48.93 10.50L49.64 6.75C49.94 5.17 50.81 4.23 51.87 4.23C53.26 4.23 53.02 5.29 52.81 6.27L51.97 10.50L53.79 10.50L54.67 5.98C55.02 4.19 54.73 2.86 52.67 2.86C51.45 2.86 50.58 3.47 50.09 4.34ZM61.12 4.47L61.43 2.87C61.28 2.86 60.96 2.86 60.94 2.86C59.91 2.86 59.04 3.56 58.58 4.49C58.67 3.96 58.79 3.28 58.83 3.00L57.08 3.00C57.04 3.40 56.95 3.95 56.83 4.59L55.66 10.50L57.48 10.50L58.20 6.85C58.49 5.28 59.26 4.42 60.48 4.42C60.80 4.42 60.94 4.44 61.12 4.47ZM67.05 7.17C66.58 9.13 65.76 9.38 64.89 9.38C63.41 9.38 63.21 7.74 63.52 6.30C63.92 4.38 64.88 4.10 65.63 4.10C67.12 4.10 67.38 5.74 67.05 7.17ZM68.92 7.32C69.47 4.90 68.60 2.84 65.79 2.84C63.38 2.84 62.02 4.12 61.60 6.30C61.14 8.68 62.19 10.64 64.75 10.64C67.00 10.64 68.43 9.48 68.92 7.32ZM74.27 10.50L76.06 10.50L76.79 6.73C77.11 5.04 77.76 4.20 78.72 4.20C79.91 4.20 79.67 5.29 79.52 6.10L78.68 10.50L80.47 10.50L81.35 5.98C81.69 4.28 81.42 2.84 79.39 2.84C78.44 2.84 77.62 3.43 77.11 4.40C77.04 3.56 76.54 2.84 75.46 2.84C74.12 2.84 73.29 3.53 72.83 4.33C72.88 3.91 72.94 3.43 72.98 3.00L71.23 3.00C71.19 3.28 71.11 3.98 70.98 4.59L69.82 10.50L71.65 10.50L72.37 6.75C72.60 5.47 73.40 4.23 74.30 4.23C75.47 4.23 75.25 5.26 75.11 6.10ZM82.38 10.50L84.20 10.50L85.67 3.00L83.85 3.00ZM84.01 1.85L85.89 1.85L86.24 0.14L84.36 0.14ZM89.36 10.64C91.20 10.64 92.43 9.67 92.88 8.23L91.15 7.90C90.87 8.79 90.41 9.25 89.54 9.25C88.31 9.25 88.05 7.99 88.33 6.38C88.58 4.94 89.15 4.13 90.17 4.13C90.83 4.13 91.38 4.48 91.52 5.45L93.37 5.05C93.20 3.81 92.15 2.86 90.31 2.86C88.72 2.86 86.87 3.57 86.42 6.44C86.07 8.68 86.73 10.64 89.36 10.64Z"></path></g><!----><!----></svg>